<svg width="512" height="512" viewBox="0 0 512 512" fill="none" xmlns="http://www.w3.org/2000/svg">
<rect width="512" height="512" fill="#E5E5E5"/>
<rect width="512" height="512" fill="#F2F2F2"/>
<path d="M39.824 234.768C46.928 232.848 52.592 230.064 56.816 226.416C61.04 222.768 63.152 218.448 63.152 213.456C63.152 210.768 62.672 207.792 61.712 204.528C60.752 201.072 59.216 196.656 57.104 191.28C52.112 178.992 49.616 169.584 49.616 163.056C49.616 153.456 53.552 145.488 61.424 139.152C69.296 132.816 79.76 129.648 92.816 129.648C96.848 129.648 100.976 130.032 105.2 130.8C109.616 131.376 112.496 131.856 113.84 132.24L115.568 135.12L111.824 151.248C111.056 151.056 109.424 150.768 106.928 150.384C104.432 150 102.128 149.808 100.016 149.808C94.832 149.808 90.896 151.44 88.208 154.704C85.52 157.776 84.176 161.904 84.176 167.088C84.176 171.312 85.424 178.224 87.92 187.824C90.608 199.344 91.952 207.216 91.952 211.44C91.952 218.544 89.936 224.4 85.904 229.008C82.064 233.424 77.072 236.496 70.928 238.224V239.952C77.456 242.064 82.544 245.52 86.192 250.32C90.032 254.928 91.952 260.784 91.952 267.888C91.952 272.88 90.608 281.328 87.92 293.232C85.424 303.6 84.176 311.088 84.176 315.696C84.176 321.072 85.616 325.392 88.496 328.656C91.376 332.112 95.504 333.84 100.88 333.84C102.992 333.84 105.296 333.552 107.792 332.976C110.288 332.592 111.92 332.304 112.688 332.112L114.992 334.992L111.824 350.544C111.44 350.736 110.288 351.12 108.368 351.696C106.448 352.464 103.76 353.136 100.304 353.712C96.848 354.48 93.008 354.864 88.784 354.864C77.264 354.864 67.856 351.6 60.56 345.072C53.264 338.736 49.616 330.864 49.616 321.456C49.616 317.424 50.288 313.2 51.632 308.784C52.976 304.176 54.896 298.704 57.392 292.368C57.776 291.408 58.832 288.528 60.56 283.728C62.288 278.928 63.152 274.992 63.152 271.92C63.152 260.208 54.992 252.432 38.672 248.592L39.824 234.768ZM472.787 248.304C465.875 250.224 460.211 253.104 455.795 256.944C451.571 260.592 449.459 264.912 449.459 269.904C449.459 272.592 449.939 275.664 450.899 279.12C451.859 282.384 453.395 286.704 455.507 292.08C458.003 298.224 459.827 303.504 460.979 307.92C462.323 312.144 462.995 316.176 462.995 320.016C462.995 330.192 459.059 338.544 451.187 345.072C443.315 351.6 432.851 354.864 419.795 354.864C415.763 354.864 411.539 354.48 407.123 353.712C402.899 353.136 400.115 352.656 398.771 352.272L397.043 349.392L400.787 333.552C401.555 333.744 403.187 334.032 405.683 334.416C408.179 334.8 410.483 334.992 412.595 334.992C417.779 334.992 421.715 333.36 424.403 330.096C427.091 327.024 428.435 322.896 428.435 317.712C428.435 313.488 427.187 306.192 424.691 295.824C422.003 284.304 420.659 276.24 420.659 271.632C420.659 264.72 422.579 259.056 426.419 254.64C430.259 250.224 435.347 247.056 441.683 245.136V243.408C427.667 238.608 420.659 229.2 420.659 215.184C420.659 210.384 422.003 202.224 424.691 190.704C427.187 180.72 428.435 173.52 428.435 169.104C428.435 163.728 426.995 159.408 424.115 156.144C421.235 152.688 417.107 150.96 411.731 150.96C409.619 150.96 407.315 151.152 404.819 151.536C402.323 151.92 400.691 152.208 399.923 152.4L397.619 149.808L400.787 133.968C401.171 133.776 402.323 133.392 404.243 132.816C406.163 132.048 408.851 131.376 412.307 130.8C415.763 130.032 419.603 129.648 423.827 129.648C435.347 129.648 444.755 132.912 452.051 139.44C459.347 145.968 462.995 153.84 462.995 163.056C462.995 167.088 462.323 171.408 460.979 176.016C459.635 180.432 457.715 185.616 455.219 191.568C454.835 192.528 453.779 195.312 452.051 199.92C450.323 204.528 449.459 208.368 449.459 211.44C449.459 217.584 451.667 222.672 456.083 226.704C460.499 230.544 466.451 233.232 473.939 234.768L472.787 248.304Z" fill="#EB5757"/>
<path d="M216.163 321.456C198.883 321.456 183.715 317.808 170.659 310.512C157.603 303.216 147.523 292.944 140.419 279.696C133.507 266.256 130.051 250.512 130.051 232.464C130.051 213.264 134.371 195.984 143.011 180.624C151.651 165.072 163.555 152.976 178.723 144.336C194.083 135.504 211.363 131.088 230.563 131.088C237.667 131.088 244.867 131.664 252.163 132.816C259.651 133.776 265.891 134.832 270.883 135.984C276.067 136.944 279.331 137.616 280.675 138L281.827 139.728C281.443 140.88 280.771 143.664 279.811 148.08C279.043 152.496 278.083 158.256 276.931 165.36C275.971 172.464 275.203 179.952 274.627 187.824L260.803 188.976C260.995 188.016 261.187 186.288 261.379 183.792C261.571 181.104 261.667 178.128 261.667 174.864C261.667 157.008 247.555 148.08 219.331 148.08C206.659 148.08 195.523 151.152 185.923 157.296C176.323 163.44 168.931 172.176 163.747 183.504C158.563 194.64 155.971 207.792 155.971 222.96C155.971 239.664 158.659 254.352 164.035 267.024C169.603 279.696 177.379 289.584 187.363 296.688C197.347 303.6 208.867 307.056 221.923 307.056C234.979 307.056 245.443 303.408 253.315 296.112C261.379 288.624 267.235 277.104 270.883 261.552L284.707 260.4C284.131 263.28 282.883 269.712 280.963 279.696C279.043 289.488 277.699 298.704 276.931 307.344L275.203 309.936C275.203 310.128 272.227 311.28 266.275 313.392C260.515 315.312 253.219 317.136 244.387 318.864C235.747 320.592 226.339 321.456 216.163 321.456Z" fill="#2F80ED"/>
<path d="M337.672 162.48C337.672 156.336 337 152.304 335.656 150.384C334.312 148.272 331.432 147.216 327.016 147.216C324.712 147.216 322.12 147.408 319.24 147.792C316.552 147.984 314.632 148.176 313.48 148.368L312.904 147.216L314.92 134.544H346.024C351.208 134.544 357.448 134.256 364.744 133.68C372.232 132.912 377.128 132.336 379.432 131.952L378.28 144.912C373.48 145.68 370.024 146.544 367.912 147.504C365.8 148.464 364.264 150 363.304 152.112C362.536 154.032 362.056 157.104 361.864 161.328C361.096 179.184 360.328 199.92 359.56 223.536C358.984 247.152 358.504 267.504 358.12 284.592C357.928 304.176 354.088 319.824 346.6 331.536C339.304 343.44 327.496 352.752 311.176 359.472L306.28 349.968L307.144 347.664C315.016 342.864 321.064 337.776 325.288 332.4C329.704 327.216 332.776 320.976 334.504 313.68C336.424 306.192 337.384 296.592 337.384 284.88L337.672 162.48Z" fill="#56CCF2"/>
</svg>
